Coordinates
version=1
nRows=12
nColumns=33
inDegrees=yes

Units are S.I. units (second, meters, Newtons, ...)
Angles are in degrees.

endheader
time	ground_thorax_rot_x	ground_thorax_rot_y	ground_thorax_rot_z	ground_thorax_tx	ground_thorax_ty	ground_thorax_tz	clav_prot_r	clav_elev_r	scapula_abduction_r	scapula_elevation_r	scapula_upward_rot_r	scapula_winging_r	shoulder_elv_r	plane_of_elev_r	axial_rot_r	elbow_flexion_r	pro_sup_r	wrist_flex_r	wrist_dev_r	clav_prot_l	clav_elev_l	scapula_abduction_l	scapula_elevation_l	scapula_upward_rot_l	scapula_winging_l	shoulder_elv_l	plane_of_elev_l	axial_rot_l	elbow_flexion_l	pro_sup_l	wrist_flex_l	wrist_dev_l
      2.00000000	      2.46678424	     -0.86356068	    -13.34453420	     -0.03822402	      1.04813515	      0.00109587	    -12.29682032	     -9.66173402	    -12.15003781	     -2.87691466	      4.85325067	      1.42441234	     52.58685649	    -46.85566740	     54.74201062	     56.41325163	     -0.30460750	     14.46964047	      9.88950145	     -7.94271994	     -6.67877142	      8.25045296	     -3.02552904	     -6.72065728	     -2.64216467	     57.99366908	    -50.88259809	    -40.97715301	     61.99986097	      2.24759027	      7.26819001	    -20.73788571
      2.01000000	      2.70662407	     -0.60411379	    -13.24622423	     -0.03798564	      1.04766039	      0.00121966	    -12.30884900	     -9.29361717	    -12.18613818	     -2.57572479	      4.94754247	      1.25317576	     52.40734248	    -47.16744837	     54.47195372	     56.71877822	     -0.35306182	     14.73246836	      9.64255526	     -7.73501350	     -6.64365140	      7.83845062	     -3.01012137	     -6.57536914	     -2.53076005	     57.74577754	    -50.97393236	    -41.37563720	     62.05831312	      2.39635789	      7.37771247	    -20.99002930
      2.02000000	      2.71530226	     -0.60684205	    -13.26443324	     -0.03746900	      1.04774800	      0.00127770	    -12.30986295	     -9.31275154	    -12.19982998	     -2.58364670	      4.91743691	      1.27024545	     52.34549702	    -47.17526772	     54.48156393	     56.73720150	     -0.35384308	     14.73853167	      9.64045492	     -7.73165420	     -6.65503764	      7.84834034	     -3.01889782	     -6.62792313	     -2.54644864	     57.67353069	    -50.99972110	    -41.40552765	     62.07437096	      2.40066410	      7.38136450	    -20.99807706
      2.03000000	      2.72271637	     -0.59416893	    -13.27279940	     -0.03696311	      1.04780662	      0.00129277	    -12.31131842	     -9.33168879	    -12.20768960	     -2.59254523	      4.89504623	      1.28198467	     52.29285218	    -47.17398686	     54.48709662	     56.76991188	     -0.35677092	     14.74658298	      9.63747619	     -7.73063924	     -6.66507279	      7.86221826	     -3.02536740	     -6.66849783	     -2.55918313	     57.61730186	    -51.02077800	    -41.42522794	     62.08948685	      2.40249632	      7.38213197	    -21.00394688
      2.04000000	      2.67707178	     -0.62837314	    -13.35025444	     -0.03642234	      1.04757861	      0.00150731	    -12.36515427	     -9.31650181	    -12.27385150	     -2.60341018	      4.95922903	      1.27198017	     52.13625298	    -47.17408334	     54.36193998	     57.04827442	     -0.42173740	     14.81769077	      9.52249159	     -7.74676313	     -6.65895324	      7.87812864	     -3.01865866	     -6.63837098	     -2.55492160	     57.54945593	    -51.08663301	    -41.31417821	     62.16085973	      2.37768300	      7.29811690	    -21.04413928
      2.05000000	      2.69056143	     -0.60475470	    -13.33549098	     -0.03595805	      1.04767356	      0.00150153	    -12.35960234	     -9.33770122	    -12.27441527	     -2.61638326	      4.94373916	      1.28201956	     52.08862438	    -47.16483155	     54.36433113	     57.08197862	     -0.42715157	     14.82409717	      9.51579089	     -7.75003803	     -6.67518735	      7.88618119	     -3.01151946	     -6.66117465	     -2.56485700	     57.50603050	    -51.08671226	    -41.31952618	     62.18105013	      2.37574710	      7.29244886	    -21.04929550
      2.06000000	      2.65315255	     -0.59690719	    -13.43617088	     -0.03547752	      1.04746049	      0.00168208	    -12.40297331	     -9.32286590	    -12.31747003	     -2.62543872	      5.00242196	      1.27027607	     51.93277507	    -47.16611809	     54.22641542	     57.39581462	     -0.51551531	     14.87993221	      9.37073564	     -7.77207841	     -6.70157289	      7.90538284	     -2.96829724	     -6.61093466	     -2.56838242	     57.45647027	    -51.10268677	    -41.14755574	     62.21892478	      2.32925373	      7.15858916	    -21.06108609
      2.07000000	      2.66674730	     -0.59087985	    -13.40390132	     -0.03508215	      1.04763003	      0.00168221	    -12.40189244	     -9.34721190	    -12.31377462	     -2.64709310	      5.00199957	      1.28146469	     51.89655143	    -47.14573495	     54.21595468	     57.42998792	     -0.52376168	     14.88453527	      9.35820095	     -7.77085225	     -6.71884415	      7.90628434	     -2.95880630	     -6.62697336	     -2.57720225	     57.41857382	    -51.09279250	    -41.14876422	     62.24182462	      2.32574650	      7.14804358	    -21.06560014
      2.08000000	      2.70769823	     -0.56629045	    -13.69612176	     -0.03453207	      1.04719214	      0.00185339	    -12.43527043	     -9.34306443	    -12.29308940	     -2.70058227	      5.16681207	      1.25041167	     51.66083330	    -47.17724477	     53.87365571	     57.79140267	     -0.74684341	     14.85137240	      8.92896178	     -7.76184851	     -6.80524696	      7.85602984	     -2.85986392	     -6.57341875	     -2.58235770	     57.20999992	    -51.02990403	    -40.75713330	     62.41354119	      2.21112324	      6.70377086	    -21.09450641
      2.09000000	      2.66262485	     -0.63883173	    -13.64525354	     -0.03422016	      1.04744959	      0.00194003	    -12.42673026	     -9.37250430	    -12.25676762	     -2.73842298	      5.20191994	      1.25245664	     51.56713908	    -47.13187369	     53.83266897	     57.88183744	     -0.78749460	     14.84232542	      8.85725035	     -7.71966320	     -6.81284004	      7.79034763	     -2.86449172	     -6.60163248	     -2.57569485	     57.18310206	    -51.06899772	    -40.74214475	     62.30439286	      2.21129707	      6.62497176	    -21.06949604
      2.10000000	      2.66958853	     -0.62409664	    -13.59349655	     -0.03386895	      1.04763917	      0.00194625	    -12.42220025	     -9.39325369	    -12.24611390	     -2.75711411	      5.20240060	      1.26104564	     51.53356523	    -47.10623389	     53.82774930	     57.92006259	     -0.79345163	     14.84593099	      8.84806116	     -7.71984676	     -6.82892542	      7.78636814	     -2.85017888	     -6.60259906	     -2.58258977	     57.16535967	    -51.05117819	    -40.73661728	     62.32244140	      2.20971683	      6.61134305	    -21.07353609
      2.11000000	      2.67555062	     -0.61144907	    -13.81713297	     -0.03374764	      1.04751923	      0.00215164	    -12.30075555	     -9.30480604	    -11.91501607	     -2.76655853	      5.48490191	      1.14222195	     50.83615481	    -47.26258391	     53.28110149	     58.15872310	     -1.18519558	     14.23106088	      7.69119106	     -7.41655099	     -6.87824500	      7.25671114	     -2.83614845	     -6.65793584	     -2.49834810	     56.75799057	    -51.07941617	    -40.16825792	     62.35490841	      2.31352148	      5.05050761	    -21.13650930
